<svg t="1710204347284" class="icon" viewBox="0 0 1024 1024" version="1.1" xmlns="http://www.w3.org/2000/svg">
  <path d="M813.176 505.882c-38.4-17.92-83.2-28.16-131.2-28.16-48 0-92.8 10.24-131.2 28.16-28.16 12.8-43.52 42.24-38.4 72.32 5.12 28.16 15.36 53.76 30.72 76.8 25.6 35.84 64 56.32 106.24 56.32 28.16 0 53.76-10.24 76.8-25.6 7.68-5.12 15.36-10.24 23.04-15.36 7.68 5.12 15.36 10.24 23.04 15.36 23.04 15.36 48.64 25.6 76.8 25.6 42.24 0 78.08-20.48 106.24-56.32 15.36-23.04 25.6-48.64 30.72-76.8 7.68-30.08-10.24-59.52-38.4-72.32z m-131.2 153.6c-15.36 0-30.72-5.12-43.52-15.36-10.24-7.68-20.48-15.36-30.72-20.48-2.56-2.56-7.68-2.56-12.8 0-10.24 5.12-20.48 12.8-30.72 20.48-12.8 10.24-28.16 15.36-43.52 15.36-25.6 0-48.64-12.8-64-35.84-10.24-15.36-17.92-33.28-20.48-53.76-2.56-12.8 5.12-25.6 17.92-33.28 30.72-15.36 69.12-23.04 107.52-23.04s76.8 7.68 107.52 23.04c12.8 7.68 20.48 20.48 17.92 33.28-2.56 20.48-10.24 38.4-20.48 53.76-17.92 23.04-40.96 35.84-64 35.84z" />
  <path d="M972.8 808.96c-5.12-30.72-15.36-58.88-30.72-84.48-25.6-43.52-64-69.12-109.44-69.12-30.72 0-58.88 10.24-84.48 28.16-7.68 5.12-15.36 12.8-23.04 17.92-7.68-7.68-15.36-12.8-23.04-17.92-25.6-17.92-53.76-28.16-84.48-28.16-7.68 0-12.8 0-20.48 2.56-2.56-2.56-5.12-5.12-7.68-7.68-38.4-38.4-89.6-61.44-145.92-61.44-56.32 0-107.52 23.04-145.92 61.44-2.56 2.56-5.12 5.12-7.68 7.68-7.68-2.56-12.8-2.56-20.48-2.56-30.72 0-58.88 10.24-84.48 28.16-7.68 5.12-15.36 12.8-23.04 17.92-7.68-7.68-15.36-12.8-23.04-17.92-25.6-17.92-53.76-28.16-84.48-28.16-43.52 0-81.92 25.6-109.44 69.12-15.36 25.6-25.6 53.76-30.72 84.48-2.56 15.36 7.68 30.72 23.04 30.72h189.44c2.56 0 5.12 0 7.68-2.56 43.52-15.36 92.16-23.04 140.8-23.04 51.2 0 99.84 7.68 145.92 25.6h366.08c12.8 0 25.6-12.8 23.04-30.72zM335.872 762.88c-46.08 0-89.6 7.68-130.56 20.48H76.8c7.68-43.52 28.16-81.92 61.44-81.92 17.92 0 35.84 7.68 51.2 20.48 10.24 7.68 17.92 15.36 28.16 23.04 5.12 2.56 10.24 2.56 15.36 0 10.24-7.68 17.92-15.36 28.16-23.04 15.36-12.8 33.28-20.48 51.2-20.48 35.84 0 69.12 28.16 89.6 76.8-20.48-10.24-43.52-15.36-66.56-15.36z m540.16-40.96c17.92 0 35.84 7.68 51.2 20.48 10.24 7.68 17.92 15.36 28.16 23.04 5.12 2.56 10.24 2.56 15.36 0 10.24-7.68 17.92-15.36 28.16-23.04 15.36-12.8 33.28-20.48 51.2-20.48 33.28 0 53.76 38.4 61.44 81.92h-128.512c-7.68-2.56-15.36-5.12-25.6-7.68-43.52-12.8-89.6-17.92-135.68-17.92-23.04 0-46.08 5.12-66.56 15.36 17.92-48.64 51.2-76.8 89.6-76.8z" />
  <path d="M335.872 588.8c56.32 0 102.4-46.08 102.4-102.4s-46.08-102.4-102.4-102.4-102.4 46.08-102.4 102.4 46.08 102.4 102.4 102.4z m0-153.6c28.16 0 51.2 23.04 51.2 51.2s-23.04 51.2-51.2 51.2-51.2-23.04-51.2-51.2 23.04-51.2 51.2-51.2z" />
</svg>