<svg t="1710204347284" class="icon" viewBox="0 0 1024 1024" version="1.1" xmlns="http://www.w3.org/2000/svg">
  <path d="M853.333333 554.666667H725.333333V170.666667c0-46.933333-38.4-85.333333-85.333333-85.333334H384c-46.933333 0-85.333333 38.4-85.333333 85.333334v384H170.666667c-23.466667 0-42.666667 19.2-42.666667 42.666666 0 23.466667 19.2 42.666667 42.666667 42.666667h128v213.333333c0 46.933333 38.4 85.333333 85.333333 85.333334h256c46.933333 0 85.333333-38.4 85.333333-85.333334v-213.333333h128c23.466667 0 42.666667-19.2 42.666667-42.666667 0-23.466667-19.2-42.666667-42.666667-42.666666z m-170.666666 298.666666c0 23.466667-19.2 42.666667-42.666667 42.666667H384c-23.466667 0-42.666667-19.2-42.666667-42.666667V170.666667c0-23.466667 19.2-42.666667 42.666667-42.666667h256c23.466667 0 42.666667 19.2 42.666667 42.666667v682.666666z" />
  <path d="M426.666667 298.666667h170.666666c23.466667 0 42.666667-19.2 42.666667-42.666667s-19.2-42.666667-42.666667-42.666667h-170.666666c-23.466667 0-42.666667 19.2-42.666667 42.666667s19.2 42.666667 42.666667 42.666667zM426.666667 469.333333h170.666666c23.466667 0 42.666667-19.2 42.666667-42.666666s-19.2-42.666667-42.666667-42.666667h-170.666666c-23.466667 0-42.666667 19.2-42.666667 42.666667s19.2 42.666667 42.666667 42.666666zM426.666667 640h170.666666c23.466667 0 42.666667-19.2 42.666667-42.666667s-19.2-42.666667-42.666667-42.666666h-170.666666c-23.466667 0-42.666667 19.2-42.666667 42.666666s19.2 42.666667 42.666667 42.666667z" />
</svg>